<svg width="27" height="27" viewBox="0 0 27 27" fill="none" xmlns="http://www.w3.org/2000/svg">
<mask id="mask0_26_1543" style="mask-type:alpha" maskUnits="userSpaceOnUse" x="0" y="0" width="27" height="27">
<rect x="0.669922" y="0.295898" width="25.8345" height="25.8345" fill="#D9D9D9"/>
</mask>
<g mask="url(#mask0_26_1543)">
<path d="M8.20473 23.977C7.61269 23.977 7.10586 23.7662 6.68426 23.3446C6.26265 22.923 6.05185 22.4162 6.05185 21.8241C6.05185 21.2321 6.26265 20.7253 6.68426 20.3037C7.10586 19.8821 7.61269 19.6713 8.20473 19.6713C8.79677 19.6713 9.30359 19.8821 9.7252 20.3037C10.1468 20.7253 10.3576 21.2321 10.3576 21.8241C10.3576 22.4162 10.1468 22.923 9.7252 23.3446C9.30359 23.7662 8.79677 23.977 8.20473 23.977ZM18.9691 23.977C18.3771 23.977 17.8703 23.7662 17.4486 23.3446C17.027 22.923 16.8162 22.4162 16.8162 21.8241C16.8162 21.2321 17.027 20.7253 17.4486 20.3037C17.8703 19.8821 18.3771 19.6713 18.9691 19.6713C19.5612 19.6713 20.068 19.8821 20.4896 20.3037C20.9112 20.7253 21.122 21.2321 21.122 21.8241C21.122 22.4162 20.9112 22.923 20.4896 23.3446C20.068 23.7662 19.5612 23.977 18.9691 23.977ZM7.28975 6.754L9.87321 12.1362H17.4083L20.3685 6.754H7.28975ZM6.26714 4.60112H22.1446C22.5572 4.60112 22.8712 4.78501 23.0865 5.15279C23.3018 5.52058 23.3108 5.89285 23.1134 6.2696L19.292 13.1588C19.0947 13.5176 18.8301 13.7957 18.4982 13.993C18.1663 14.1904 17.803 14.2891 17.4083 14.2891H9.38881L8.20473 16.4419H21.122V18.5948H8.20473C7.3974 18.5948 6.78742 18.2405 6.37478 17.5318C5.96215 16.8232 5.94421 16.119 6.32096 15.4193L7.77415 12.7821L3.89897 4.60112H1.74609V2.44824H5.24452L6.26714 4.60112Z" fill="black" fill-opacity="0.6"/>
</g>
</svg>
