<svg width="28" height="31" viewBox="0 0 28 31" fill="none" xmlns="http://www.w3.org/2000/svg">
<g filter="url(#filter0_d_3226_991)">
<path d="M13.8334 19.9V4.1C13.8334 2.6 13.1934 2 11.6034 2H7.56337C5.97337 2 5.33337 2.6 5.33337 4.1V19.9C5.33337 21.4 5.97337 22 7.56337 22H11.6034C13.1934 22 13.8334 21.4 13.8334 19.9Z" fill="black"/>
<path d="M13.8334 19.9V4.1C13.8334 2.6 13.1934 2 11.6034 2H7.56337C5.97337 2 5.33337 2.6 5.33337 4.1V19.9C5.33337 21.4 5.97337 22 7.56337 22H11.6034C13.1934 22 13.8334 21.4 13.8334 19.9Z" stroke="black" stroke-width="1.5" stroke-linecap="round" stroke-linejoin="round"/>
</g>
<path d="M25.3334 10.9V4.1C25.3334 2.6 24.6934 2 23.1034 2H19.0634C17.4734 2 16.8334 2.6 16.8334 4.1V10.9C16.8334 12.4 17.4734 13 19.0634 13H23.1034C24.6934 13 25.3334 12.4 25.3334 10.9Z" fill="black" stroke="black" stroke-width="1.5" stroke-linecap="round" stroke-linejoin="round"/>
<path d="M25.3334 19.9V18.1C25.3334 16.6 24.6934 16 23.1034 16H19.0634C17.4734 16 16.8334 16.6 16.8334 18.1V19.9C16.8334 21.4 17.4734 22 19.0634 22H23.1034C24.6934 22 25.3334 21.4 25.3334 19.9Z" fill="black" stroke="black" stroke-width="1.5" stroke-linecap="round" stroke-linejoin="round"/>
<defs>
<filter id="filter0_d_3226_991" x="0.583374" y="1.25" width="18" height="29.5" filterUnits="userSpaceOnUse" color-interpolation-filters="sRGB">
<feFlood flood-opacity="0" result="BackgroundImageFix"/>
<feColorMatrix in="SourceAlpha" type="matrix" values="0 0 0 0 0 0 0 0 0 0 0 0 0 0 0 0 0 0 127 0" result="hardAlpha"/>
<feOffset dy="4"/>
<feGaussianBlur stdDeviation="2"/>
<feComposite in2="hardAlpha" operator="out"/>
<feColorMatrix type="matrix" values="0 0 0 0 0 0 0 0 0 0 0 0 0 0 0 0 0 0 0.26 0"/>
<feBlend mode="normal" in2="BackgroundImageFix" result="effect1_dropShadow_3226_991"/>
<feBlend mode="normal" in="SourceGraphic" in2="effect1_dropShadow_3226_991" result="shape"/>
</filter>
</defs>
</svg>
