<svg width="101" height="101" viewBox="0 0 101 101" fill="none" xmlns="http://www.w3.org/2000/svg">
<mask id="mask0_4_1731" style="mask-type:alpha" maskUnits="userSpaceOnUse" x="0" y="0" width="101" height="101">
<rect width="100.963" height="100.963" fill="#D9D9D9"/>
</mask>
<g mask="url(#mask0_4_1731)">
<path d="M50.3844 71.5152C51.5763 71.5152 52.5754 71.1121 53.3817 70.3058C54.188 69.4995 54.5912 68.5003 54.5912 67.3084C54.5912 66.1165 54.188 65.1174 53.3817 64.3111C52.5754 63.5048 51.5763 63.1016 50.3844 63.1016C49.1924 63.1016 48.1933 63.5048 47.387 64.3111C46.5807 65.1174 46.1776 66.1165 46.1776 67.3084C46.1776 68.5003 46.5807 69.4995 47.387 70.3058C48.1933 71.1121 49.1924 71.5152 50.3844 71.5152ZM46.1776 54.688H54.5912V29.4472H46.1776V54.688ZM50.3844 92.5492C44.565 92.5492 39.0961 91.4449 33.9779 89.2363C28.8596 87.0278 24.4074 84.0304 20.6213 80.2443C16.8352 76.4582 13.8378 72.006 11.6293 66.8877C9.42069 61.7695 8.31641 56.3006 8.31641 50.4812C8.31641 44.6618 9.42069 39.193 11.6293 34.0747C13.8378 28.9565 16.8352 24.5043 20.6213 20.7181C24.4074 16.932 28.8596 13.9347 33.9779 11.7261C39.0961 9.51755 44.565 8.41327 50.3844 8.41327C56.2038 8.41327 61.6726 9.51755 66.7909 11.7261C71.9091 13.9347 76.3613 16.932 80.1474 20.7181C83.9336 24.5043 86.9309 28.9565 89.1395 34.0747C91.348 39.193 92.4523 44.6618 92.4523 50.4812C92.4523 56.3006 91.348 61.7695 89.1395 66.8877C86.9309 72.006 83.9336 76.4582 80.1474 80.2443C76.3613 84.0304 71.9091 87.0278 66.7909 89.2363C61.6726 91.4449 56.2038 92.5492 50.3844 92.5492ZM50.3844 84.1356C59.7795 84.1356 67.7374 80.8753 74.2579 74.3548C80.7785 67.8343 84.0387 59.8764 84.0387 50.4812C84.0387 41.086 80.7785 33.1282 74.2579 26.6077C67.7374 20.0871 59.7795 16.8269 50.3844 16.8269C40.9892 16.8269 33.0313 20.0871 26.5108 26.6077C19.9903 33.1282 16.73 41.086 16.73 50.4812C16.73 59.8764 19.9903 67.8343 26.5108 74.3548C33.0313 80.8753 40.9892 84.1356 50.3844 84.1356Z" fill="#888888"/>
</g>
</svg>
