<svg width="26" height="23" viewBox="0 0 26 23" fill="none" xmlns="http://www.w3.org/2000/svg">
<path fill-rule="evenodd" clip-rule="evenodd" d="M25.0445 11.7615C25.0445 10.3846 23.8214 9.40918 22.4446 9.40918H15.002C13.7736 9.40918 12.7778 10.405 12.7778 11.6334C12.7778 12.8618 13.7736 13.8576 15.002 13.8576H16.6181C18.1856 13.8576 19.329 15.3798 18.2101 16.4775C18.1258 16.5601 18.0384 16.6406 17.948 16.7188C17.4591 17.1417 17.1049 17.7237 17.1049 18.3701C17.1049 19.3885 17.9304 20.214 18.9487 20.214H20.1402C20.8474 20.214 21.5446 19.9787 22.0394 19.4735C23.9575 17.5149 25.0445 14.8542 25.0445 11.7615Z" fill="#4285F4"/>
<path fill-rule="evenodd" clip-rule="evenodd" d="M12.7776 23.0001C14.8566 23.0001 16.7331 22.6261 18.3589 21.9445C19.9224 21.2891 19.8628 19.2557 18.473 18.2846C17.6409 17.7032 16.5525 17.7024 15.5857 18.0119C14.7512 18.279 13.8105 18.4262 12.7776 18.4262C10.1192 18.4262 7.78688 17.1354 6.44383 15.2306C5.83691 14.3698 4.92849 13.6851 3.87524 13.6851H3.7223C2.41702 13.6851 1.35889 14.7432 1.35889 16.0485C1.35889 16.4525 1.45801 16.8525 1.6744 17.1937C3.87477 20.6628 8.02064 23.0001 12.7776 23.0001Z" fill="#34A853"/>
<path fill-rule="evenodd" clip-rule="evenodd" d="M3.87206 14.9106C4.90623 14.1888 5.24746 12.8528 5.22798 11.5918C5.22751 11.5612 5.22727 11.5306 5.22727 11.5C5.22727 10.8973 5.31909 10.3078 5.48519 9.74466C5.56993 9.45737 5.62803 9.16165 5.62803 8.86212C5.62803 7.46668 4.4968 6.33545 3.10135 6.33545H2.93884C1.96359 6.33545 1.03872 6.85433 0.69124 7.76557C0.244591 8.93687 0 10.1938 0 11.5C0 12.2924 0.090019 13.0667 0.26056 13.8147C0.625135 15.4139 2.52711 15.8493 3.87206 14.9106Z" fill="#FBBC05"/>
<path fill-rule="evenodd" clip-rule="evenodd" d="M12.7776 4.57386C13.8808 4.57386 14.9177 4.77452 15.8541 5.17157C16.9787 5.64841 18.3423 5.68154 19.2502 4.86441C20.347 3.87727 20.3172 2.12659 19.0052 1.45128C17.212 0.528313 15.1227 0 12.7776 0C8.60779 0 4.90753 1.79592 2.57559 4.57579C1.79399 5.50753 2.1185 6.86563 3.11576 7.56168C4.38653 8.44863 6.18557 7.85718 7.29311 6.77326C8.66715 5.42853 10.6144 4.57386 12.7776 4.57386Z" fill="#EA4335"/>
</svg>
