<svg width="27" height="26" viewBox="0 0 27 26" fill="none" xmlns="http://www.w3.org/2000/svg">
<path fill-rule="evenodd" clip-rule="evenodd" d="M2.98779 17.8642C2.9878 17.4543 3.15432 17.0619 3.44919 16.7771L4.5568 15.7073C4.97843 15.3001 5.21578 14.7385 5.21402 14.1523L5.20383 10.7583C5.18958 6.00967 9.0351 2.15259 13.7837 2.15259C18.5223 2.15259 22.3637 5.99396 22.3637 10.7325L22.3637 14.1781C22.3637 14.7491 22.5905 15.2967 22.9942 15.7004L24.0707 16.7769C24.3562 17.0623 24.5166 17.4496 24.5166 17.8533C24.5166 18.694 23.835 19.3756 22.9943 19.3756H18.0579C18.0579 21.7536 16.1302 23.6814 13.7522 23.6814C11.3742 23.6814 9.44643 21.7536 9.44643 19.3756H4.4992C3.66447 19.3756 2.98779 18.6989 2.98779 17.8642ZM11.5993 19.3756C11.5993 20.5646 12.5632 21.5285 13.7522 21.5285C14.9412 21.5285 15.9051 20.5646 15.9051 19.3756H11.5993ZM20.2108 14.1781C20.2108 15.3201 20.6644 16.4152 21.4719 17.2227L6.08633 17.2227C6.90842 16.4111 7.37036 15.3024 7.36689 14.1458L7.3567 10.7518C7.34602 7.19473 10.2266 4.30547 13.7837 4.30547C17.3333 4.30547 20.2108 7.18296 20.2108 10.7325L20.2108 14.1781Z" fill="black" fill-opacity="0.6"/>
</svg>
