<svg width="25" height="24" viewBox="0 0 25 24" fill="none" xmlns="http://www.w3.org/2000/svg">
<path d="M10.8333 19.9V4.1C10.8333 2.6 10.1933 2 8.60331 2H4.56331C2.97331 2 2.33331 2.6 2.33331 4.1V19.9C2.33331 21.4 2.97331 22 4.56331 22H8.60331C10.1933 22 10.8333 21.4 10.8333 19.9Z" stroke="#344054" stroke-width="1.5" stroke-linecap="round" stroke-linejoin="round"/>
<path d="M22.3333 10.9V4.1C22.3333 2.6 21.6933 2 20.1033 2H16.0633C14.4733 2 13.8333 2.6 13.8333 4.1V10.9C13.8333 12.4 14.4733 13 16.0633 13H20.1033C21.6933 13 22.3333 12.4 22.3333 10.9Z" stroke="#344054" stroke-width="1.5" stroke-linecap="round" stroke-linejoin="round"/>
<path d="M22.3333 19.9V18.1C22.3333 16.6 21.6933 16 20.1033 16H16.0633C14.4733 16 13.8333 16.6 13.8333 18.1V19.9C13.8333 21.4 14.4733 22 16.0633 22H20.1033C21.6933 22 22.3333 21.4 22.3333 19.9Z" stroke="#344054" stroke-width="1.5" stroke-linecap="round" stroke-linejoin="round"/>
</svg>
